# xmcd
#
# Track frame offsets: 
#        150
#        66958
#        88869
#        106801
#        125443
#        196103
#        209562
#
# Disc length: 3143 seconds
#
# Revision: 0
# Processed by: cddbd v1.5.2PL0 Copyright (c) Steve Scherf et al.
# Submitted via: ExactAudioCopy v0.99pb4
#
DISCID=610c4507
DTITLE=Fleetwood Mac - BBC Rock Hour
DYEAR=1970
DGENRE=Blues
TTITLE0=Rattlesnake shake
TTITLE1=Stranger Blues
TTITLE2=World in harmony
TTITLE3=Tiger
TTITLE4=The green Manalishi
TTITLE5=Great balls of fire 
TTITLE6=Twist and shout
EXTD=
EXTT0=
EXTT1=
EXTT2=
EXTT3=
EXTT4=
EXTT5=
EXTT6=
PLAYORDER=
